<svg viewBox="0 0 475.88 156.9" xmlns="http://www.w3.org/2000/svg">
    <path d="m410.47,62.65V21.5h30.5v41.15h34.91v30.13h-34.91v41.15h-30.5v-41.15h-34.91v-30.13h34.91Z"></path>
    <path d="m371.56,2.2l-19.66,72.02,19.66,80.47h-38.58l-13.23-56.95,1.1,56.95h-37.48V2.2h37.48l-1.47,65.4,17.45-37.3-9.19,1.65,6.61-29.76h37.3Z"></path>
    <path d="m186.73,63.57c0-22.54,3.74-38.76,11.21-48.69,7.47-9.92,18.74-14.88,33.81-14.88s26.33,4.96,33.8,14.88c7.47,9.92,11.21,26.15,11.21,48.69v29.76c0,22.54-3.73,38.76-11.21,48.69-7.47,9.92-18.74,14.88-33.8,14.88s-26.33-4.96-33.81-14.88c-7.47-9.92-11.21-26.15-11.21-48.69v-29.76Zm40.79,56.03c0,3.55,1.41,5.33,4.23,5.33s4.22-1.78,4.22-5.33V37.3c0-3.55-1.41-5.33-4.22-5.33s-4.23,1.78-4.23,5.33v82.31Z"></path><path d="m89.63,63.57c0-22.54,3.74-38.76,11.21-48.69C108.31,4.96,119.57,0,134.64,0s26.33,4.96,33.8,14.88c7.47,9.92,11.21,26.15,11.21,48.69v29.76c0,22.54-3.74,38.76-11.21,48.69-7.47,9.92-18.74,14.88-33.8,14.88s-26.33-4.96-33.8-14.88c-7.47-9.92-11.21-26.15-11.21-48.69v-29.76Zm40.79,56.03c0,3.55,1.41,5.33,4.23,5.33s4.23-1.78,4.23-5.33V37.3c0-3.55-1.41-5.33-4.23-5.33s-4.23,1.78-4.23,5.33v82.31Z"></path><path d="m3.67,2.2h77.16v34.17h-42.99l-.73,23.88c3.43-7.59,9.74-11.39,18.92-11.39s15.92,3.12,20.58,9.37c4.78,6.25,7.17,15.25,7.17,27.01v25.72c0,15.31-3.61,26.82-10.84,34.54-7.1,7.59-17.58,11.39-31.42,11.39-27.68,0-41.52-15.31-41.52-45.93v-8.82h37.48v17.27c0,1.47.37,2.69,1.1,3.67.73.98,1.78,1.47,3.12,1.47s2.39-.49,3.12-1.47c.73-.98,1.1-2.21,1.1-3.67v-31.05c0-3.55-1.29-5.33-3.86-5.33-3.18,0-4.96,2.63-5.33,7.9H1.47L3.67,2.2Z"></path>
</svg>